<?xml version="1.0" encoding="utf-8"?>
<!-- Generator: Adobe Illustrator 25.4.1, SVG Export Plug-In . SVG Version: 6.00 Build 0)  -->
<svg version="1.1" id="Bifa1" xmlns="http://www.w3.org/2000/svg" xmlns:xlink="http://www.w3.org/1999/xlink" x="0px" y="0px"
	 viewBox="0 0 90 90" style="enable-background:new 0 0 90 90;" xml:space="preserve">
<style type="text/css">
	.st0{fill-rule:evenodd;clip-rule:evenodd;fill:#B6DBB6;}
</style>
<path class="st0" d="M45,87C21.8,87,3,68.2,3,45S21.8,3,45,3s42,18.8,42,42S68.2,87,45,87z M45,5.5C23.2,5.5,5.5,23.2,5.5,45
	S23.2,84.5,45,84.5S84.5,66.8,84.5,45S66.8,5.5,45,5.5C45,5.5,45,5.5,45,5.5z M43.7,64.8c-1.5,3-2.2,4.6-5,1.5
	c-1.5-1.7-12.1-13.4-13.8-15.6S20.6,45.2,23,43c2.5-2.3,5.8-0.8,7.3,1.2s8.6,10.3,9.7,10.7c2.1-4,18.8-33.2,31-29.5
	C58.6,32.9,48.7,54.6,43.7,64.8z"/>
</svg>
